<?xml version="1.0" encoding="UTF-8" standalone="no"?>
<!DOCTYPE svg PUBLIC "-//W3C//DTD SVG 1.1//EN" "http://www.w3.org/Graphics/SVG/1.1/DTD/svg11.dtd">
<svg width="100%" height="100%" viewBox="0 0 500 250" version="1.1" xmlns="http://www.w3.org/2000/svg" xmlns:xlink="http://www.w3.org/1999/xlink" xml:space="preserve" xmlns:serif="http://www.serif.com/" style="fill-rule:evenodd;clip-rule:evenodd;stroke-linejoin:round;stroke-miterlimit:2;">
    <g transform="matrix(1,0,0,1,-200,0)">
        <rect x="0" y="0" width="900" height="450" style="fill:white;"/>
    </g>
    <g transform="matrix(1,0,0,1,-200,0)">
        <path d="M0,89L18.8,93.7C37.7,98.3 75.3,107.7 112.8,107.7C150.3,107.7 187.7,98.3 225.2,105C262.7,111.7 300.3,134.3 337.8,135.7C375.3,137 412.7,117 450.2,112.5C487.7,108 525.3,119 562.8,124C600.3,129 637.7,128 675.2,126.8C712.7,125.7 750.3,124.3 787.8,123.5C825.3,122.7 862.7,122.3 881.3,122.2L900,122L900,0L0,0L0,89Z" style="fill:rgb(42,157,143);fill-rule:nonzero;"/>
    </g>
</svg>
